<mxfile host="app.diagrams.net" agent="Mozilla/5.0 (X11; Linux x86_64) AppleWebKit/537.36 (KHTML, like Gecko) Chrome/130.0.0.0 Safari/537.36" version="24.8.4">
  <diagram name="Page-1" id="GAVahQZJkxNCrexyySg3">
    <mxGraphModel dx="6523" dy="2367" grid="1" gridSize="10" guides="1" tooltips="1" connect="1" arrows="1" fold="1" page="0" pageScale="1" pageWidth="850" pageHeight="1100" math="0" shadow="0">
      <root>
        <mxCell id="0" />
        <mxCell id="1" parent="0" />
        <mxCell id="9NRPG5LTuDzQz4354OjO-47" value="" style="group" vertex="1" connectable="0" parent="1">
          <mxGeometry x="-950" y="-80" width="870" height="880" as="geometry" />
        </mxCell>
        <mxCell id="9NRPG5LTuDzQz4354OjO-40" value="" style="rounded=0;whiteSpace=wrap;html=1;fillColor=none;" vertex="1" parent="9NRPG5LTuDzQz4354OjO-47">
          <mxGeometry width="870" height="690" as="geometry" />
        </mxCell>
        <mxCell id="9NRPG5LTuDzQz4354OjO-1" value="&lt;font style=&quot;font-size: 32px;&quot;&gt;Mongo DB&lt;/font&gt;&lt;div&gt;&lt;font style=&quot;font-size: 32px;&quot;&gt;&amp;amp;&lt;/font&gt;&lt;/div&gt;&lt;div&gt;&lt;font style=&quot;font-size: 32px;&quot;&gt;GridFS&lt;/font&gt;&lt;/div&gt;" style="shape=cylinder3;whiteSpace=wrap;html=1;boundedLbl=1;backgroundOutline=1;size=15;" vertex="1" parent="9NRPG5LTuDzQz4354OjO-47">
          <mxGeometry x="345" y="710" width="220" height="170" as="geometry" />
        </mxCell>
        <mxCell id="9NRPG5LTuDzQz4354OjO-43" style="edgeStyle=orthogonalEdgeStyle;rounded=0;orthogonalLoop=1;jettySize=auto;html=1;exitX=0.5;exitY=1;exitDx=0;exitDy=0;entryX=0.75;entryY=0;entryDx=0;entryDy=0;" edge="1" parent="9NRPG5LTuDzQz4354OjO-47" source="9NRPG5LTuDzQz4354OjO-4" target="9NRPG5LTuDzQz4354OjO-29">
          <mxGeometry relative="1" as="geometry" />
        </mxCell>
        <mxCell id="9NRPG5LTuDzQz4354OjO-4" value="&lt;span style=&quot;font-size: 16px;&quot;&gt;Objects, their type and location&lt;/span&gt;" style="rounded=0;whiteSpace=wrap;html=1;" vertex="1" parent="9NRPG5LTuDzQz4354OjO-47">
          <mxGeometry x="655.63" y="150" width="140" height="60" as="geometry" />
        </mxCell>
        <mxCell id="9NRPG5LTuDzQz4354OjO-8" value="&lt;font style=&quot;font-size: 45px;&quot;&gt;&lt;font style=&quot;font-size: 45px;&quot;&gt;N&lt;/font&gt;&lt;span style=&quot;background-color: initial;&quot;&gt;oSQL &quot;ER&quot; diagram&lt;/span&gt;&lt;/font&gt;" style="text;html=1;align=center;verticalAlign=middle;resizable=0;points=[];autosize=1;strokeColor=none;fillColor=none;" vertex="1" parent="9NRPG5LTuDzQz4354OjO-47">
          <mxGeometry x="245" y="10" width="450" height="70" as="geometry" />
        </mxCell>
        <mxCell id="9NRPG5LTuDzQz4354OjO-44" style="edgeStyle=orthogonalEdgeStyle;rounded=0;orthogonalLoop=1;jettySize=auto;html=1;exitX=0.5;exitY=1;exitDx=0;exitDy=0;entryX=0.25;entryY=0;entryDx=0;entryDy=0;" edge="1" parent="9NRPG5LTuDzQz4354OjO-47" source="9NRPG5LTuDzQz4354OjO-11" target="9NRPG5LTuDzQz4354OjO-29">
          <mxGeometry relative="1" as="geometry" />
        </mxCell>
        <mxCell id="9NRPG5LTuDzQz4354OjO-11" value="&lt;span style=&quot;font-size: 16px;&quot;&gt;Datasets&lt;br&gt;Name and their metadata&lt;/span&gt;" style="rounded=0;whiteSpace=wrap;html=1;" vertex="1" parent="9NRPG5LTuDzQz4354OjO-47">
          <mxGeometry x="420" y="150" width="140" height="60" as="geometry" />
        </mxCell>
        <mxCell id="9NRPG5LTuDzQz4354OjO-17" style="edgeStyle=orthogonalEdgeStyle;rounded=0;orthogonalLoop=1;jettySize=auto;html=1;exitX=0;exitY=0.5;exitDx=0;exitDy=0;entryX=1;entryY=0.5;entryDx=0;entryDy=0;" edge="1" parent="9NRPG5LTuDzQz4354OjO-47" source="9NRPG5LTuDzQz4354OjO-13" target="9NRPG5LTuDzQz4354OjO-16">
          <mxGeometry relative="1" as="geometry" />
        </mxCell>
        <mxCell id="9NRPG5LTuDzQz4354OjO-22" style="edgeStyle=orthogonalEdgeStyle;rounded=0;orthogonalLoop=1;jettySize=auto;html=1;exitX=1;exitY=0.5;exitDx=0;exitDy=0;entryX=0;entryY=0.5;entryDx=0;entryDy=0;" edge="1" parent="9NRPG5LTuDzQz4354OjO-47" source="9NRPG5LTuDzQz4354OjO-13" target="9NRPG5LTuDzQz4354OjO-21">
          <mxGeometry relative="1" as="geometry" />
        </mxCell>
        <mxCell id="9NRPG5LTuDzQz4354OjO-13" value="&lt;span style=&quot;font-size: 16px;&quot;&gt;Collections of points&lt;/span&gt;" style="rounded=0;whiteSpace=wrap;html=1;" vertex="1" parent="9NRPG5LTuDzQz4354OjO-47">
          <mxGeometry x="400" y="535" width="140" height="70" as="geometry" />
        </mxCell>
        <mxCell id="9NRPG5LTuDzQz4354OjO-16" value="&lt;span style=&quot;font-size: 16px;&quot;&gt;List with 2D or 3D points in polar or whatever coordinats and capture value of sensor (scalar or vector supported)&lt;/span&gt;" style="rounded=0;whiteSpace=wrap;html=1;" vertex="1" parent="9NRPG5LTuDzQz4354OjO-47">
          <mxGeometry x="110" y="520" width="200" height="100" as="geometry" />
        </mxCell>
        <mxCell id="9NRPG5LTuDzQz4354OjO-21" value="&lt;span style=&quot;font-size: 16px;&quot;&gt;Processed data&lt;/span&gt;" style="rounded=0;whiteSpace=wrap;html=1;" vertex="1" parent="9NRPG5LTuDzQz4354OjO-47">
          <mxGeometry x="670" y="535" width="141.25" height="70" as="geometry" />
        </mxCell>
        <mxCell id="9NRPG5LTuDzQz4354OjO-27" value="" style="rounded=0;whiteSpace=wrap;html=1;fillColor=none;" vertex="1" parent="9NRPG5LTuDzQz4354OjO-47">
          <mxGeometry x="60" y="480" width="540" height="170" as="geometry" />
        </mxCell>
        <mxCell id="9NRPG5LTuDzQz4354OjO-28" value="&lt;font style=&quot;font-size: 24px;&quot;&gt;This could be skipped,&lt;br&gt;when working with &lt;br&gt;already processed data&lt;/font&gt;" style="text;html=1;align=center;verticalAlign=middle;resizable=0;points=[];autosize=1;strokeColor=none;fillColor=none;" vertex="1" parent="9NRPG5LTuDzQz4354OjO-47">
          <mxGeometry x="75" y="370" width="270" height="100" as="geometry" />
        </mxCell>
        <mxCell id="9NRPG5LTuDzQz4354OjO-33" style="edgeStyle=orthogonalEdgeStyle;rounded=0;orthogonalLoop=1;jettySize=auto;html=1;exitX=0.75;exitY=1;exitDx=0;exitDy=0;entryX=0.5;entryY=0;entryDx=0;entryDy=0;" edge="1" parent="9NRPG5LTuDzQz4354OjO-47" source="9NRPG5LTuDzQz4354OjO-29" target="9NRPG5LTuDzQz4354OjO-21">
          <mxGeometry relative="1" as="geometry" />
        </mxCell>
        <mxCell id="9NRPG5LTuDzQz4354OjO-34" style="edgeStyle=orthogonalEdgeStyle;rounded=0;orthogonalLoop=1;jettySize=auto;html=1;exitX=0.25;exitY=1;exitDx=0;exitDy=0;entryX=0.5;entryY=0;entryDx=0;entryDy=0;" edge="1" parent="9NRPG5LTuDzQz4354OjO-47" source="9NRPG5LTuDzQz4354OjO-29" target="9NRPG5LTuDzQz4354OjO-13">
          <mxGeometry relative="1" as="geometry">
            <mxPoint x="440" y="460.3333333333335" as="targetPoint" />
          </mxGeometry>
        </mxCell>
        <mxCell id="9NRPG5LTuDzQz4354OjO-29" value="Unique identificator of data" style="rounded=0;whiteSpace=wrap;html=1;" vertex="1" parent="9NRPG5LTuDzQz4354OjO-47">
          <mxGeometry x="550" y="325" width="120" height="60" as="geometry" />
        </mxCell>
        <mxCell id="9NRPG5LTuDzQz4354OjO-32" value="Not a collection, just a helper entity for diagram" style="text;html=1;align=center;verticalAlign=middle;whiteSpace=wrap;rounded=0;" vertex="1" parent="9NRPG5LTuDzQz4354OjO-47">
          <mxGeometry x="685.63" y="340" width="110" height="30" as="geometry" />
        </mxCell>
        <mxCell id="9NRPG5LTuDzQz4354OjO-35" value="N to N&lt;br&gt;relations" style="text;html=1;align=center;verticalAlign=middle;resizable=0;points=[];autosize=1;strokeColor=none;fillColor=none;" vertex="1" parent="9NRPG5LTuDzQz4354OjO-47">
          <mxGeometry x="575" y="260" width="70" height="40" as="geometry" />
        </mxCell>
        <mxCell id="9NRPG5LTuDzQz4354OjO-37" value="&lt;span style=&quot;background-color: initial;&quot;&gt;1 to 0..1&lt;/span&gt;&lt;div&gt;relations&lt;/div&gt;" style="text;html=1;align=center;verticalAlign=middle;resizable=0;points=[];autosize=1;strokeColor=none;fillColor=none;" vertex="1" parent="9NRPG5LTuDzQz4354OjO-47">
          <mxGeometry x="741.25" y="490" width="70" height="40" as="geometry" />
        </mxCell>
        <mxCell id="9NRPG5LTuDzQz4354OjO-38" value="1 to 0..1&lt;br&gt;relations" style="text;html=1;align=center;verticalAlign=middle;resizable=0;points=[];autosize=1;strokeColor=none;fillColor=none;" vertex="1" parent="9NRPG5LTuDzQz4354OjO-47">
          <mxGeometry x="400" y="495" width="70" height="40" as="geometry" />
        </mxCell>
        <mxCell id="9NRPG5LTuDzQz4354OjO-39" value="0..1 to 0..1&lt;br&gt;relations" style="text;html=1;align=center;verticalAlign=middle;resizable=0;points=[];autosize=1;strokeColor=none;fillColor=none;" vertex="1" parent="9NRPG5LTuDzQz4354OjO-47">
          <mxGeometry x="595" y="530" width="80" height="40" as="geometry" />
        </mxCell>
        <mxCell id="9NRPG5LTuDzQz4354OjO-49" value="" style="group" vertex="1" connectable="0" parent="1">
          <mxGeometry x="-1520" y="475" width="465.52" height="560" as="geometry" />
        </mxCell>
        <mxCell id="9NRPG5LTuDzQz4354OjO-55" value="" style="group" vertex="1" connectable="0" parent="9NRPG5LTuDzQz4354OjO-49">
          <mxGeometry x="-20" y="-25" width="455.52" height="527.76" as="geometry" />
        </mxCell>
        <mxCell id="9NRPG5LTuDzQz4354OjO-46" value="&lt;font style=&quot;font-size: 25px;&quot;&gt;Each dataset will read config from DB and be defined in a class. All will inherit from the same class.&lt;br&gt;&lt;br&gt;Caching configs&lt;/font&gt;&lt;div&gt;&lt;font style=&quot;font-size: 25px;&quot;&gt;- All files local&lt;/font&gt;&lt;/div&gt;&lt;div&gt;&lt;font style=&quot;font-size: 25px;&quot;&gt;- Files of interest local&lt;/font&gt;&lt;/div&gt;&lt;div&gt;&lt;font style=&quot;font-size: 25px;&quot;&gt;- No cache&lt;br&gt;&lt;br&gt;All will provide interace:&lt;/font&gt;&lt;div&gt;&lt;font style=&quot;font-size: 25px;&quot;&gt;&lt;i&gt;query_cutoffs(objects)&lt;/i&gt;&lt;/font&gt;&lt;div&gt;&lt;font style=&quot;font-size: 25px;&quot;&gt;This will gather&amp;nbsp; either collection of points or processed data for given objects&lt;/font&gt;&lt;/div&gt;&lt;/div&gt;&lt;/div&gt;" style="whiteSpace=wrap;html=1;aspect=fixed;" vertex="1" parent="9NRPG5LTuDzQz4354OjO-55">
          <mxGeometry y="72.24000000000001" width="455.52" height="455.52" as="geometry" />
        </mxCell>
        <mxCell id="9NRPG5LTuDzQz4354OjO-48" value="&lt;span style=&quot;font-size: 45px;&quot;&gt;Datasets Interface&lt;/span&gt;" style="text;html=1;align=center;verticalAlign=middle;resizable=0;points=[];autosize=1;strokeColor=none;fillColor=none;" vertex="1" parent="9NRPG5LTuDzQz4354OjO-55">
          <mxGeometry x="25" width="390" height="70" as="geometry" />
        </mxCell>
        <mxCell id="9NRPG5LTuDzQz4354OjO-50" style="edgeStyle=orthogonalEdgeStyle;rounded=0;orthogonalLoop=1;jettySize=auto;html=1;exitX=1;exitY=0.5;exitDx=0;exitDy=0;entryX=0;entryY=0;entryDx=0;entryDy=120;entryPerimeter=0;startArrow=classic;startFill=1;strokeWidth=8;" edge="1" parent="1" source="9NRPG5LTuDzQz4354OjO-46" target="9NRPG5LTuDzQz4354OjO-1">
          <mxGeometry relative="1" as="geometry" />
        </mxCell>
        <mxCell id="9NRPG5LTuDzQz4354OjO-52" value="" style="group" vertex="1" connectable="0" parent="1">
          <mxGeometry x="-1020" y="1050" width="390" height="460" as="geometry" />
        </mxCell>
        <mxCell id="9NRPG5LTuDzQz4354OjO-56" style="edgeStyle=orthogonalEdgeStyle;rounded=0;orthogonalLoop=1;jettySize=auto;html=1;exitX=1;exitY=0.5;exitDx=0;exitDy=0;strokeWidth=8;" edge="1" parent="9NRPG5LTuDzQz4354OjO-52" source="9NRPG5LTuDzQz4354OjO-53">
          <mxGeometry relative="1" as="geometry">
            <mxPoint x="180" y="-300" as="targetPoint" />
            <Array as="points">
              <mxPoint x="450" y="274" />
              <mxPoint x="450" y="-105" />
              <mxPoint x="181" y="-105" />
              <mxPoint x="181" y="-210" />
              <mxPoint x="180" y="-210" />
            </Array>
          </mxGeometry>
        </mxCell>
        <mxCell id="9NRPG5LTuDzQz4354OjO-53" value="&lt;span style=&quot;font-size: 25px;&quot;&gt;This script will allow to gather data from datasets of certain objects&lt;/span&gt;&lt;div&gt;&lt;span style=&quot;font-size: 25px;&quot;&gt;&lt;br&gt;&lt;/span&gt;&lt;/div&gt;&lt;div&gt;&lt;span style=&quot;font-size: 25px;&quot;&gt;CLI parameters will include query of objects definition&lt;/span&gt;&lt;/div&gt;" style="whiteSpace=wrap;html=1;aspect=fixed;" vertex="1" parent="9NRPG5LTuDzQz4354OjO-52">
          <mxGeometry x="10" y="89" width="370" height="370" as="geometry" />
        </mxCell>
        <mxCell id="9NRPG5LTuDzQz4354OjO-54" value="&lt;span style=&quot;font-size: 45px;&quot;&gt;Data control script&lt;/span&gt;" style="text;html=1;align=center;verticalAlign=middle;resizable=0;points=[];autosize=1;strokeColor=none;fillColor=none;" vertex="1" parent="9NRPG5LTuDzQz4354OjO-52">
          <mxGeometry width="390" height="70" as="geometry" />
        </mxCell>
        <mxCell id="9NRPG5LTuDzQz4354OjO-65" style="edgeStyle=orthogonalEdgeStyle;rounded=0;orthogonalLoop=1;jettySize=auto;html=1;exitX=1;exitY=0.5;exitDx=0;exitDy=0;entryX=0;entryY=0.5;entryDx=0;entryDy=0;strokeWidth=5;" edge="1" parent="1" source="9NRPG5LTuDzQz4354OjO-60" target="9NRPG5LTuDzQz4354OjO-62">
          <mxGeometry relative="1" as="geometry" />
        </mxCell>
        <mxCell id="9NRPG5LTuDzQz4354OjO-60" value="&lt;span style=&quot;font-size: 28px;&quot;&gt;Data analysis&lt;/span&gt;" style="rounded=0;whiteSpace=wrap;html=1;" vertex="1" parent="1">
          <mxGeometry x="60" y="645" width="410" height="140" as="geometry" />
        </mxCell>
        <mxCell id="9NRPG5LTuDzQz4354OjO-61" value="&lt;span style=&quot;font-size: 28px;&quot;&gt;Data visualization&lt;/span&gt;" style="rounded=0;whiteSpace=wrap;html=1;" vertex="1" parent="1">
          <mxGeometry x="60" y="830" width="410" height="140" as="geometry" />
        </mxCell>
        <mxCell id="9NRPG5LTuDzQz4354OjO-62" value="&lt;span style=&quot;font-size: 28px;&quot;&gt;Report creator&lt;/span&gt;" style="rounded=0;whiteSpace=wrap;html=1;" vertex="1" parent="1">
          <mxGeometry x="560" y="670" width="250" height="90" as="geometry" />
        </mxCell>
        <mxCell id="9NRPG5LTuDzQz4354OjO-63" style="edgeStyle=orthogonalEdgeStyle;rounded=0;orthogonalLoop=1;jettySize=auto;html=1;exitX=1;exitY=0.5;exitDx=0;exitDy=0;exitPerimeter=0;entryX=0;entryY=0.5;entryDx=0;entryDy=0;startArrow=classic;startFill=1;strokeWidth=7;" edge="1" parent="1" source="9NRPG5LTuDzQz4354OjO-1" target="9NRPG5LTuDzQz4354OjO-60">
          <mxGeometry relative="1" as="geometry" />
        </mxCell>
        <mxCell id="9NRPG5LTuDzQz4354OjO-64" style="edgeStyle=orthogonalEdgeStyle;rounded=0;orthogonalLoop=1;jettySize=auto;html=1;exitX=1;exitY=0;exitDx=0;exitDy=120;exitPerimeter=0;entryX=0;entryY=0.5;entryDx=0;entryDy=0;startArrow=classic;startFill=1;strokeWidth=7;" edge="1" parent="1" source="9NRPG5LTuDzQz4354OjO-1" target="9NRPG5LTuDzQz4354OjO-61">
          <mxGeometry relative="1" as="geometry" />
        </mxCell>
      </root>
    </mxGraphModel>
  </diagram>
</mxfile>
